<svg version="1" xmlns="http://www.w3.org/2000/svg" width="776" height="776" viewBox="0 0 582.000000 582.000000"><path d="M267.1 8.1c-29.5 2.6-65.2 11.8-93.4 24-41 17.7-80.8 49-109.9 86.4C25.9 167.3 5 229.5 5 294c0 64.8 21.1 125.8 60.8 175.9 14.4 18.3 39 41.4 59.7 56.3 8.9 6.3 30.7 19 41.5 24.1 45.3 21.3 96.1 31.3 142.3 27.9 45.7-3.4 85.6-15.5 124.1-37.9 9.7-5.6 28.2-18.2 31.8-21.5.7-.7 5.2-4.6 10-8.6 11.8-10 30.6-29.6 41.2-43 50.5-64.4 70.1-147.7 54.1-229.6-6-30.8-19.9-66.4-36.3-93-12.9-20.9-23.2-33.9-42-53-32.5-32.9-68.9-55.9-110.1-69.6-36.9-12.2-78-17.2-115-13.9zm65.4 10.8c18.3 2.8 49.3 11.4 62.5 17.3 33.6 15.2 51.9 26.7 77.1 48.4 34.8 30.1 61.4 68.7 78.4 113.7 10.6 28.3 15.4 53.6 16.2 87.2.7 29.6-1.8 50.7-9.2 79-18.5 70-67.8 134-130.3 169.4-4.1 2.2-7.5 4.1-7.5 4.1-.1 0-.3-15.2-.4-33.8-.2-38.2-1.1-47-6.9-64-5.7-16.7-12.6-27.1-24.3-36.8-10.5-8.8-31-17.4-41.5-17.4-6.6 0-7.6-.8-7.6-6v-4.8l8.3-5.5c4.5-3.1 11.5-8.9 15.6-12.9 7.2-7.1 17.3-21 20-27.6 1.1-2.5 1.9-3.2 4.1-3.2 1.6 0 18.6 1.8 37.9 4 19.3 2.2 36.2 4 37.6 4 1.8 0 2.9-.8 3.7-2.5 1.3-3 3.6.5-25.9-39.4-10.6-14.3-19.3-26.2-19.3-26.4 0-.3 1.9-1.2 4.3-2.2 2.3-.9 5.6-2.3 7.2-3 1.7-.7 8.6-3.8 15.5-6.8 43.6-18.8 44-19 44.6-21.3 1.1-4.2 1.4-4-30.6-17.6-9.1-3.9-18.5-7.9-21-9.1-2.5-1.1-7.9-3.4-12-5.2-4.1-1.8-7.5-3.7-7.5-4.3 0-.6 6.1-9.3 13.5-19.3s14.2-19.3 15-20.5c.8-1.3 4.8-6.6 8.8-11.8 7.5-9.8 8.8-13.7 5.4-15.5-1.7-.9-18.1.6-46.7 4.4-19.8 2.6-30.5 3.6-31.4 3.1-.5-.3-.5-2.6 0-5.3 1.9-10.7 8-69.7 7.5-71.8-1-3.8-4.1-3.6-9.8.4-2.9 2-15.9 11.6-28.8 21.2-26 19.4-28.9 21.4-29.5 20.7-.5-.5-6.2-13.5-20.7-47.3C295.5 32.9 293.9 30 291 30c-2.3 0-3 1-7 10-4.8 11-18.7 43.2-23 53.2-2 4.9-3.9 9-4.1 9.3-.3.2-11.7-7.9-25.4-18.1-37.5-27.9-37.2-27.7-39.9-27-1.3.3-2.6 1.2-2.9 2-.5 1.3 1.5 20 6.9 63.9.9 7.6 1.5 14 1.2 14.2-.4.4-5.9-.2-54.5-6.1-24-2.9-25.3-2.7-25.3 2.2 0 1.5 8 13.1 22.3 32.1 12.2 16.4 22.5 30.3 22.9 30.8.4.7-5.1 3.6-15 8-8.6 3.7-22.7 9.8-31.2 13.6-8.5 3.7-17.4 7.5-19.8 8.4-4.9 2-6.8 4.6-5.3 7.3 1.1 2.1 5.1 3.9 58.6 26.9 7.2 3.1 13.1 5.7 13.3 5.8.3.3-.4 1.4-26.7 36.5-10.5 14-19 26.5-19.1 27.6 0 4.8.9 4.8 35.2 1 17.8-2.1 35.4-4.1 39.2-4.6 3.9-.5 7.3-.7 7.8-.4.5.3 2.2 3.2 3.8 6.3 7.2 14.4 20.3 28.3 35.3 37.7 8 5 8.2 5.2 8.5 9.4.4 4.8-.6 6-5.3 6-10.1.1-28.2 7-38.7 14.8-12.8 9.4-23.7 26.3-28.8 44.3-4.1 14.7-5.1 25-5.7 61l-.6 34.7-2.6-1.2c-10.3-4.5-35-20.5-49.2-31.7-34.5-27.5-62-63.5-78.8-103.2-15.6-36.9-21.8-65.1-22.8-104.2-1.3-48.6 7.7-90.3 28.4-132 13.2-26.4 29.1-48.4 50.8-70.1 46.8-46.9 106.2-74.6 175-81.8 10.6-1.1 51.5.4 64 2.3zm-37.9 37.8c-.4.4-3.6-7.3-3.5-8.5 0-.4.9 1.3 2 3.7 1.1 2.4 1.8 4.6 1.5 4.8zm-6.5 0c-1.2 2-1.4 1.4-.5-1.2.4-.9.9-1.4 1.1-1.1.3.2 0 1.3-.6 2.3zm10.3 6.9c.3.8.2 1.2-.4.9-.6-.3-1-1-1-1.6 0-1.4.7-1.1 1.4.7zm3.1 9.2c-.5.5-2.5-4.3-2.5-6.1.1-.7.7.3 1.6 2.2.8 1.9 1.2 3.6.9 3.9zm-20.7.7c-.6 1.4-1.3 2.3-1.5 2.1-.5-.5 1.5-4.6 2.2-4.6.3 0-.1 1.1-.7 2.5zm102.9-.1c0 .8-.6 1.2-1.4.9-.7-.3-1-.9-.7-1.4.8-1.4 2.1-1.1 2.1.5zm-181.6 1.3c.8 1 .9 1.4.2 1-.8-.5-1.3.3-1.5 2.5-.3 3.1-.4 3-.9-1-.5-4.5.1-5.2 2.2-2.5zm4 3c1.3 1.6 1.2 1.7-.3.4-1-.7-1.8-1.5-1.8-1.7 0-.8.8-.3 2.1 1.3zm71.5 3c-.8 1.5-1.5 2.5-1.6 2.1 0-1.2 2.3-5.8 2.7-5.4.3.2-.2 1.7-1.1 3.3zm28.4.4c0 .6-.4.7-1 .4-.5-.3-1-1.1-1-1.6 0-.6.5-.7 1-.4.6.3 1 1.1 1 1.6zm-88.6 5.8c-.2.3-1.2-.3-2.2-1.3-1.6-1.7-1.6-1.8.5-.5 1.2.7 2 1.5 1.7 1.8zm-15.7.3c-.3.8-.6.5-.6-.6-.1-1.1.2-1.7.5-1.3.3.3.4 1.2.1 1.9zM367 85.4c0 .2-.7.7-1.6 1-.8.3-1.2.2-.9-.4.6-1 2.5-1.4 2.5-.6zm-93.4 4.3c-.8 1.5-1.5 2.5-1.6 2.1 0-1.2 2.3-5.8 2.7-5.4.3.2-.2 1.7-1.1 3.3zM221 88.5c1.1 1.3 1 1.4-.4.9-.9-.3-1.6-1-1.6-1.5 0-1.3.6-1.1 2 .6zm142-1.1c0 .2-.8 1-1.7 1.7-1.6 1.3-1.7 1.2-.4-.4 1.3-1.6 2.1-2.1 2.1-1.3zm17.7 5.8c-.3.7-.5.2-.5-1.2s.2-1.9.5-1.3c.2.7.2 1.9 0 2.5zm-109.6 2.5c-1.2 2-1.4 1.4-.5-1.2.4-.9.9-1.4 1.1-1.1.3.2 0 1.3-.6 2.3zm-68.4 2c-.3 1-.5.4-.5-1.2 0-1.7.2-2.4.5-1.8.2.7.2 2.1 0 3zM351 96.4c0 .2-.8 1-1.7 1.7-1.6 1.3-1.7 1.2-.4-.4 1.3-1.6 2.1-2.1 2.1-1.3zm-4 3c0 .2-.8 1-1.7 1.7-1.6 1.3-1.7 1.2-.4-.4 1.3-1.6 2.1-2.1 2.1-1.3zm32.7 2.8c-.3.7-.5.2-.5-1.2s.2-1.9.5-1.3c.2.7.2 1.9 0 2.5zm-141.6-.5c1.3 1.7 1.3 1.7-.6.3-1.1-.8-2.2-1.6-2.4-1.7-.2-.2 0-.3.6-.3s1.7.8 2.4 1.7zm29 3c-1.2 2-1.4 1.4-.5-1.2.4-.9.9-1.4 1.1-1.1.3.2 0 1.3-.6 2.3zm75.9-2.3c0 .2-.8 1-1.7 1.7-1.6 1.3-1.7 1.2-.4-.4 1.3-1.6 2.1-2.1 2.1-1.3zm-139.3 3.8c-.3.7-.5.2-.5-1.2s.2-1.9.5-1.3c.2.7.2 1.9 0 2.5zm40.8-.2c.3.6-.1.7-.9.4-1.8-.7-2.1-1.4-.7-1.4.6 0 1.3.4 1.6 1zm91 2.5c-1.6 1.3-3.4 2.4-3.9 2.5-.6 0 .5-1.1 2.4-2.5 4.4-3.2 5.4-3.2 1.5 0zM254 113c1.8 1.5 1.9 1.8.5 1.1-1.1-.5-3.6-2.4-5.5-4.1-3-2.7-3.1-2.9-.5-1.1 1.7 1.1 4.1 3 5.5 4.1zm65-1.5c0 .5-.5.3-1-.5s-1-2-1-2.5c0-.6.5-.3 1 .5s1 1.9 1 2.5zm59.7.7c-.3.8-.6.5-.6-.6-.1-1.1.2-1.7.5-1.3.3.3.4 1.2.1 1.9zm-174 2.5c-.3 1-.5.4-.5-1.2 0-1.7.2-2.4.5-1.8.2.7.2 2.1 0 3zm57.3.3c-.8.6-2.4.9-3.5.9l-2-.1 2-.5c1.1-.3 2.4-.9 2.9-1.4.5-.5 1.2-.6 1.5-.3.3.3-.1.9-.9 1.4zm62.1.8c-.7.2-1.8-.1-2.3-.6-.8-.8-.4-.9 1.3-.5 1.3.4 1.8.8 1 1.1zm53.6 5.4c-.2 1.3-.4.5-.4-1.7-.1-2.2.1-3.2.4-2.3.2 1 .2 2.8 0 4zm-88.4-3.5c-.7.2-2.1.2-3 0-1-.3-.4-.5 1.2-.5 1.7 0 2.4.2 1.8.5zm8 0c-.7.2-2.1.2-3 0-1-.3-.4-.5 1.2-.5 1.7 0 2.4.2 1.8.5zm-18.6.9c-.3.3-1.2.4-1.9.1-.8-.3-.5-.6.6-.6 1.1-.1 1.7.2 1.3.5zm28 0c-.3.3-1.2.4-1.9.1-.8-.3-.5-.6.6-.6 1.1-.1 1.7.2 1.3.5zm-101 6.6c-.2 1.3-.4.5-.4-1.7-.1-2.2.1-3.2.4-2.3.2 1 .2 2.8 0 4zm49.3-.2c-.8.5-2.2.9-3 .9-1 0-.8-.3.5-.9 2.7-1.2 4.3-1.2 2.5 0zm78 1.2c0 .6-.6.5-1.5-.2-.8-.7-1.5-1.4-1.5-1.6 0-.2.7-.1 1.5.2.8.4 1.5 1.1 1.5 1.6zm43.7 3.5c-.3 1-.5.4-.5-1.2 0-1.7.2-2.4.5-1.8.2.7.2 2.1 0 3zM248 127.5c0 .2-1 .9-2.2 1.5-2.2 1.1-2.2 1-.4-.4 2.1-1.7 2.6-1.9 2.6-1.1zm89.5.5c.3.6-.1.7-.9.4-1.8-.7-2.1-1.4-.7-1.4.6 0 1.3.4 1.6 1zm-18.5 3.5c27.4 8.9 49.6 29.4 58.8 54.5 6.2 16.8 6.5 18.8 6.6 54.5.3 56.3-.9 66.3-10.4 86.3-17.6 37-62.6 57.9-103 47.8-30.4-7.6-55.8-30-65-57.6-5.2-15.4-5.9-22.9-6-62 0-37.7.7-48.3 4-60.8 8.9-32.8 34.6-56.7 69-64.1 14.1-3.1 34.2-2.4 46 1.4zm-112.3 2.7c-.2 1.3-.4.5-.4-1.7-.1-2.2.1-3.2.4-2.3.2 1 .2 2.8 0 4zm137.3-2.6c0 .2-.9 0-2-.6s-2-1.3-2-1.6c0-.2.9 0 2 .6s2 1.3 2 1.6zm31.7 6.1c-.3 1-.5.4-.5-1.2 0-1.7.2-2.4.5-1.8.2.7.2 2.1 0 3zM235 135.3c0 .2-1.5 1.3-3.2 2.6l-3.3 2.2 2.8-2.5c2.6-2.4 3.7-3.1 3.7-2.3zm118.1 2.4c1.3 1.6 1.2 1.7-.3.4-1.7-1.3-2.2-2.1-1.4-2.1.2 0 1 .8 1.7 1.7zm4.4 3.1c-.3.3-1.1 0-1.8-.7-.9-1-.8-1.1.6-.5 1 .3 1.5.9 1.2 1.2zm93.5-1.4c0 .3-.4.8-1 1.1-.5.3-1 .1-1-.4 0-.6.5-1.1 1-1.1.6 0 1 .2 1 .4zm-316.6 2.2c.5 1.4.4 1.5-.9.4-1.7-1.4-1.9-2-.6-2 .5 0 1.2.7 1.5 1.6zm88.5 3.8c-2.9 3-5.5 5.3-5.7 5.1-.4-.4 9.5-10.5 10.4-10.5.3 0-1.8 2.5-4.7 5.4zm-80.1-3.7c-1 .2-2.6.2-3.5 0-1-.3-.2-.5 1.7-.5s2.7.2 1.8.5zm64.9 1.5c-.3.8-.6.5-.6-.6-.1-1.1.2-1.7.5-1.3.3.3.4 1.2.1 1.9zm229.6-1.5c-.7.2-1.9.2-2.5 0-.7-.3-.2-.5 1.2-.5s1.9.2 1.3.5zm-284 1c-.7.2-2.1.2-3 0-1-.3-.4-.5 1.2-.5 1.7 0 2.4.2 1.8.5zm207.8 1c1.3 1.6 1.2 1.7-.3.4-1.7-1.3-2.2-2.1-1.4-2.1.2 0 1 .8 1.7 1.7zm65.7-1c-1 .2-2.6.2-3.5 0-1-.3-.2-.5 1.7-.5s2.7.2 1.8.5zm19 3.7c-1.8 2.4-3.4 4.3-3.6 4.1-.5-.5 5.2-8.4 6.1-8.5.4 0-.7 2-2.5 4.4zm-283.5-2.7c-.7.2-2.1.2-3 0-1-.3-.4-.5 1.2-.5 1.7 0 2.4.2 1.8.5zm255 0c-.7.2-1.9.2-2.5 0-.7-.3-.2-.5 1.2-.5s1.9.2 1.3.5zm-246.5 1c-1 .2-2.6.2-3.5 0-1-.3-.2-.5 1.7-.5s2.7.2 1.8.5zm238.5 0c-.7.2-2.1.2-3 0-1-.3-.4-.5 1.2-.5 1.7 0 2.4.2 1.8.5zm-228.6.9c-.3.3-1.2.4-1.9.1-.8-.3-.5-.6.6-.6 1.1-.1 1.7.2 1.3.5zm218.1.1c-1 .2-2.6.2-3.5 0-1-.3-.2-.5 1.7-.5s2.7.2 1.8.5zm-209.5 1c-.7.2-1.9.2-2.5 0-.7-.3-.2-.5 1.2-.5s1.9.2 1.3.5zm201 0c-.7.2-2.1.2-3 0-1-.3-.4-.5 1.2-.5 1.7 0 2.4.2 1.8.5zM139.5 149c1 1.1 1.6 2 1.3 2-.3 0-1.3-.9-2.3-2-1-1.1-1.6-2-1.3-2 .3 0 1.3.9 2.3 2zm57.8-1.3c-.7.2-1.9.2-2.5 0-.7-.3-.2-.5 1.2-.5s1.9.2 1.3.5zm16.8 6.6l-2.3 2.2 1.7-2.8c1-1.5 2-2.5 2.3-2.2.3.3-.5 1.6-1.7 2.8zm222.9 4.1c0 .2-.8 1-1.7 1.7-1.6 1.3-1.7 1.2-.4-.4 1.3-1.6 2.1-2.1 2.1-1.3zm-229.9 5.3c-1.2 2-1.4 1.4-.5-1.2.4-.9.9-1.4 1.1-1.1.3.2 0 1.3-.6 2.3zm-52.1 6.7c0 .5-.1.7-.3.5-.2-.2-1.5-2.2-3.1-4.4l-2.7-4 3 3.5c1.7 1.9 3.1 3.9 3.1 4.4zm276-4.5c-.5 1.1-1.5 2.3-2.1 2.7-.6.3-.3-.5.6-2 2-3 3-3.5 1.5-.7zm-226.9 2.4c-1 .9-1.1.8-.5-.6.3-1 .9-1.5 1.2-1.2.3.3 0 1.1-.7 1.8zm-2 4.4c-1.2 2-1.4 1.4-.5-1.2.4-.9.9-1.4 1.1-1.1.3.2 0 1.3-.6 2.3zm-42.2 3.7c-.3.3-1.1-.5-1.8-1.7-1.3-2.1-1.2-2.1.5-.5 1 1 1.6 2 1.3 2.2zm260.5 4.1c-.9 1.4-1.8 2.5-2.1 2.5-.5 0 .5-1.8 2-3.8 1.7-2.2 1.8-1.3.1 1.3zm-33.6 1c-.3.3-.9-.2-1.2-1.2-.6-1.4-.5-1.5.5-.6.7.7 1 1.5.7 1.8zm-216.4 9.2c.4.7.5 1.3.3 1.3-.6 0-6.7-8.7-6.7-9.6 0-.6 4.5 5.2 6.4 8.3zm244-2.2c-.9 1.4-1.8 2.5-2.1 2.5-.5 0 .5-1.8 2-3.8 1.7-2.2 1.8-1.3.1 1.3zm-240.4 7c1.4 1.9 1.4 1.9-.2.6-1-.7-1.8-1.8-1.8-2.4 0-.6.1-.8.3-.6.1.2.9 1.3 1.7 2.4zm217.7 3.7c-.3.8-.6.5-.6-.6-.1-1.1.2-1.7.5-1.3.3.3.4 1.2.1 1.9zm-216 1c-.3.8-.6.5-.6-.6-.1-1.1.2-1.7.5-1.3.3.3.4 1.2.1 1.9zm217 5.5c-.3 1-.5.4-.5-1.2 0-1.7.2-2.4.5-1.8.2.7.2 2.1 0 3zm20.9-1c-.6.6-3.6-.9-3.6-1.8 0-.5.9-.4 2 .3 1 .7 1.8 1.4 1.6 1.5zM170 206c-.8.5-1.9 1-2.5 1-.5 0-.3-.5.5-1s2-1 2.5-1c.6 0 .3.5-.5 1zm20.7 6.7c-.3 1-.5.2-.5-1.7s.2-2.7.5-1.8c.2 1 .2 2.6 0 3.5zm203 1c-.3 1-.5.2-.5-1.7s.2-2.7.5-1.8c.2 1 .2 2.6 0 3.5zm44.8 1.3c.3.5-.4.6-1.5.3s-2.2-.9-2.5-1.3c-.3-.5.4-.6 1.5-.3s2.2.9 2.5 1.3zm-294 2c-.3.5-1.2 1-1.8 1-.7 0-.6-.4.3-1 1.9-1.2 2.3-1.2 1.5 0zm250.2 9.7c-.2 1.6-.4.3-.4-2.7s.2-4.3.4-2.8c.2 1.6.2 4 0 5.5zM128.5 224c-.3.5-1.2 1-1.8 1-.7 0-.6-.4.3-1 1.9-1.2 2.3-1.2 1.5 0zm335 2c.3.6-.1.7-.9.4-1.8-.7-2.1-1.4-.7-1.4.6 0 1.3.4 1.6 1zM114 230c-.8.5-1.9 1-2.5 1-.5 0-.3-.5.5-1s2-1 2.5-1c.6 0 .3.5-.5 1zm361 1c0 .5-.5 1-1.1 1-.5 0-.7-.5-.4-1 .3-.6.8-1 1.1-1 .2 0 .4.4.4 1zm-365 1c0 .5-.4 1-1 1-.5 0-1-.5-1-1 0-.6.5-1 1-1 .6 0 1 .4 1 1zm291.5 3c.3.6-.1.7-.9.4-1.8-.7-2.1-1.4-.7-1.4.6 0 1.3.4 1.6 1zM120 237c.8.5 1.1 1 .5 1-.5 0-1.7-.5-2.5-1s-1-1-.5-1c.6 0 1.7.5 2.5 1zm61-.7c0 .2-.9 1.2-2 2.2-2.4 2.1-2.7 1.4-.4-.9 1.5-1.5 2.4-2 2.4-1.3zm-55.5 3.5c-.3.3-1.1 0-1.8-.7-.9-1-.8-1.1.6-.5 1 .3 1.5.9 1.2 1.2zm48.6 3.8c-1.1 1.5-2.1 2.4-2.1 2 0-1 3.4-5.5 3.9-5.1.2.2-.6 1.6-1.8 3.1zm-39.6.2c-.3.3-1.1 0-1.8-.7-.9-1-.8-1.1.6-.5 1 .3 1.5.9 1.2 1.2zm4.5 1.2c.8.5 1.1 1 .5 1-.5 0-1.7-.5-2.5-1s-1-1-.5-1c.6 0 1.7.5 2.5 1zm51.5 5.6c.7 6.4.2 21.1-.8 22.1-.3.2-1.9-.3-3.6-1.1-8.3-4.3-9.6-17-2.5-24.1 5.1-5.1 6.1-4.6 6.9 3.1zm208.3-4.6c7.5 4.6 8.4 16.7 1.7 23.6-1.1 1.2-5 3.4-5.9 3.4-.3 0-.6-6.5-.6-14.5s.3-14.5.8-14.5c.4 0 2.2.9 4 2zM144 247c.8.5 1.1 1 .5 1-.5 0-1.7-.5-2.5-1s-1-1-.5-1c.6 0 1.7.5 2.5 1zm269.7 2.2c-.3.8-.6.5-.6-.6-.1-1.1.2-1.7.5-1.3.3.3.4 1.2.1 1.9zM155 252c.8.5 1.1 1 .5 1-.5 0-1.7-.5-2.5-1s-1-1-.5-1c.6 0 1.7.5 2.5 1zm269 2c-.8.5-1.9 1-2.5 1-.5 0-.3-.5.5-1s2-1 2.5-1c.6 0 .3.5-.5 1zm-262 1c.8.5 1.1 1 .5 1-.5 0-1.7-.5-2.5-1s-1-1-.5-1c.6 0 1.7.5 2.5 1zm7.6 3.7c-1.1 1.1-1.7-.4-.9-2.3.7-1.8.8-1.8 1.1-.1.2 1 .1 2.1-.2 2.4zm4.4 14.8c1.4 1.9 1.4 1.9-.2.6-1-.7-1.8-1.8-1.8-2.4 0-.6.1-.8.3-.6.1.2.9 1.3 1.7 2.4zm236.3.5c-1.4 1.6-2.8 3-3 3-.2 0 .6-1.4 1.9-3 1.2-1.7 2.5-3 3-3 .4 0-.4 1.3-1.9 3zm4.8.7c1.3 1.6 1.2 1.7-.3.4-1.7-1.3-2.2-2.1-1.4-2.1.2 0 1 .8 1.7 1.7zM178.5 278c.3.6-.1.7-.9.4-1.8-.7-2.1-1.4-.7-1.4.6 0 1.3.4 1.6 1zm226 2c-1 1.1-2.2 2-2.8 2-.5 0 .1-.9 1.4-2 3.1-2.5 3.7-2.5 1.4 0zm-237.5-.7c0 .2-1.2 1.4-2.7 2.8l-2.8 2.4 2.4-2.8c2.3-2.5 3.1-3.2 3.1-2.4zm253.5 2.3c.9 1.5 1.2 2.3.6 2-1.1-.7-3.5-4.6-2.8-4.6.3 0 1.2 1.2 2.2 2.6zm-238-.6c.3.6-.1.7-.9.4-1.8-.7-2.1-1.4-.7-1.4.6 0 1.3.4 1.6 1zm8.2 8.7c-.3 1-.5.2-.5-1.7s.2-2.7.5-1.8c.2 1 .2 2.6 0 3.5zm-31.9.8c-1.3 1.9-2.7 3.5-3.2 3.5-.8 0 0-1.4 3.3-5.3 2.3-2.8 2.3-1.9-.1 1.8zm234.9 5.2c-.3 1-.5.2-.5-1.7s.2-2.7.5-1.8c.2 1 .2 2.6 0 3.5zm36.4-1c1.3 1.6 1.2 1.7-.3.4-1.7-1.3-2.2-2.1-1.4-2.1.2 0 1 .8 1.7 1.7zm-275.1.6c0 .2-1 1.2-2.2 2.3l-2.3 1.9 1.9-2.3c1.8-2.1 2.6-2.7 2.6-1.9zm36.7 2.9c-.3.8-.6.5-.6-.6-.1-1.1.2-1.7.5-1.3.3.3.4 1.2.1 1.9zm201 4c-.3.7-.5.2-.5-1.2s.2-1.9.5-1.3c.2.7.2 1.9 0 2.5zm-1.2 6.8c-.9 4.1-1.7 3.3-.9-.9.4-1.7.9-3 1.1-2.7.3.2.2 1.9-.2 3.6zm51.9 3.6c.3.8.2 1.2-.4.9-.6-.3-1-1-1-1.6 0-1.4.7-1.1 1.4.7zm-53.7 2.6c-.3.8-.6.5-.6-.6-.1-1.1.2-1.7.5-1.3.3.3.4 1.2.1 1.9zm-194.9 1.5c-1 .2-2.6.2-3.5 0-1-.3-.2-.5 1.7-.5s2.7.2 1.8.5zm203.9-.1c-.3.3-1.2.4-1.9.1-.8-.3-.5-.6.6-.6 1.1-.1 1.7.2 1.3.5zm-212.4 1.1c-.7.2-1.9.2-2.5 0-.7-.3-.2-.5 1.2-.5s1.9.2 1.3.5zm220 0c-.7.2-2.1.2-3 0-1-.3-.4-.5 1.2-.5 1.7 0 2.4.2 1.8.5zm9.4.9c-.3.3-1.2.4-1.9.1-.8-.3-.5-.6.6-.6 1.1-.1 1.7.2 1.3.5zm-280.3 3.9c-.4.8-1.1 1.5-1.6 1.5-.6 0-.5-.6.2-1.5.7-.8 1.4-1.5 1.6-1.5.2 0 .1.7-.2 1.5zm4.1.5c-.3.5-1.4 1-2.3.9-1.4 0-1.3-.2.3-.9 2.7-1.1 2.7-1.1 2 0zm311.5 0c0 .5-.2 1-.4 1-.3 0-.8-.5-1.1-1-.3-.6-.1-1 .4-1 .6 0 1.1.4 1.1 1zm-121 59.2c0 5.8-1.2 13.8-2 13.3-.5-.3-.6.3-.3 1.4 1.2 4.6-7.8 17.6-15.8 22.7-10 6.3-24 6.9-34.5 1.6-13.5-6.9-21.4-19.7-21.4-35.1 0-5.6.2-6.2 1.8-5.6 17.9 7.7 47.3 7.9 65.8.7 6.5-2.6 6.4-2.7 6.4 1zm-92.7 18c-4.5 6.3-15.3 20.8-40.3 54.1-20.8 27.8-20.3 27.6-17.6 8.8 5.2-35 23.3-57.7 52.8-66.1 9.2-2.7 9.4-2.6 5.1 3.2zm119.9-2.6c17.6 5.5 30 14.5 38.2 27.7 8 12.9 13.4 30.2 14.3 46.1l.6 10.1-32.2-42.7c-17.6-23.5-32.1-43-32.1-43.3 0-1 3.1-.4 11.2 2.1zm-111.5 87.5c-.4 44.1-.9 80.4-1.1 80.6-.5.5-15.4-2.3-20.2-3.8-2.8-.9-8-6.1-18.1-18.2l-3.2-3.8 10-15c7.4-11.2 9.9-15.7 9.7-17.6-.2-2.2-2-3.6-9.8-8.1-5.2-2.9-13.4-7.7-18.1-10.4l-8.7-5.1 29.5-39.4c16.3-21.6 29.8-39.3 30.1-39.3.3 0 .2 36.1-.1 80.1zm100.6-73.4c8.4 10.7 51.5 68 52.6 70.1 1.3 2.5 1.8 2.1-15.4 11.7-16.9 9.4-20.8 12.2-20.2 14.4.2.9 4.7 8.3 10 16.4 5.4 8.1 9.7 15.3 9.7 16 0 .7-4 5.4-8.8 10.5l-8.7 9.2-9.9 2.5c-5.4 1.4-10.9 2.5-12.2 2.5H341v-61.3c0-33.6-.3-69.6-.7-80-.3-10.3-.3-18.7 0-18.7s3 3 6 6.7zm-88.7 6.5c1 1.2 1.4 1.8.7 1.5-.7-.5-1.3.1-1.5 1.5-.3 1.6-.5 1.2-.9-1.5-.3-2-.4-3.7-.4-3.7.1 0 1 1 2.1 2.2zm68.8 2.9c-1.6 1.7-3.8 3.5-4.9 4.1-1.1.6 0-.8 2.5-3 5.3-4.9 6.5-5.4 2.4-1.1zm-63.9 1.9c1 1.1 1.6 2 1.3 2-.3 0-1.5-.9-2.8-2-1.3-1.1-1.9-2-1.3-2 .5 0 1.8.9 2.8 2zm9.5 6.6c0 .2-.9 0-2-.6s-2-1.3-2-1.6c0-.2.9 0 2 .6s2 1.3 2 1.6zm10.5 3.4c.3.6-.1.7-.9.4-1.8-.7-2.1-1.4-.7-1.4.6 0 1.3.4 1.6 1zm25.2-.4c-.3.3-1.2.4-1.9.1-.8-.3-.5-.6.6-.6 1.1-.1 1.7.2 1.3.5zm-21 1c-.3.3-1.2.4-1.9.1-.8-.3-.5-.6.6-.6 1.1-.1 1.7.2 1.3.5zm14 0c-.3.3-1.2.4-1.9.1-.8-.3-.5-.6.6-.6 1.1-.1 1.7.2 1.3.5zm31 101.7c-.1 11.1-.2 2-.2-20.3s.1-31.4.2-20.2c.2 11.1.2 29.3 0 40.5zm78.3-19.2v27l-7.7 3.6c-9.1 4.1-17.6 7.4-18 7-.1-.2.5-1.2 1.5-2.3 5.9-6.6 8.2-9.6 8.2-10.9 0-.7-4.1-7.6-9.2-15.2-9-13.6-10.9-17.3-9.1-17.3.5 0 8.3-4.3 17.4-9.5 9-5.2 16.5-9.5 16.7-9.5.1 0 .2 12.2.2 27.1zM194.5 499c8.7 4.9 16.2 9.3 16.8 9.9.6.6-2 5.5-7.7 14.1-4.8 7.2-9.2 14.1-9.8 15.5-1.3 2.9-.5 4.3 6.8 12.4 4.1 4.6 4.5 5.3 2.4 4.6-5.4-1.6-23.5-8.6-24.1-9.3-.9-1-1.8-56.2-.9-56.2.4 0 7.8 4 16.5 9zm65.8 68.7c-.7.2-1.9.2-2.5 0-.7-.3-.2-.5 1.2-.5s1.9.2 1.3.5zm12 1c-1.3.2-3.3.2-4.5 0-1.3-.2-.3-.4 2.2-.4s3.5.2 2.3.4zm42.5 0c-1 .2-2.8.2-4 0-1.3-.2-.5-.4 1.7-.4 2.2-.1 3.2.1 2.3.4zm-19.5 1c-2.3.2-6.4.2-9 0-2.6-.2-.7-.3 4.2-.3 5 0 7.1.1 4.8.3z"/><path d="M274.5 139c-2.2.5-6.5 1.4-9.5 1.9-5.8 1.1-9.4 4-8.3 6.7 1 2.6 4.4 3.2 10.3 1.7 3-.7 13.2-1.6 22.5-1.9 14.3-.5 18.5-.3 26.3 1.3 8 1.7 9.5 1.8 11.2.6 2.3-1.6 2.6-4.5.7-6.1-4.3-3.6-42.5-6.6-53.2-4.2zM235.1 161.2c-6.7 3.4-8.5 6.6-8.9 15.1-.4 8.7 1.6 13.3 6.8 15.9 3.2 1.7 8.2 1.8 59.4 1.8h55.9l4.3-4.5c4.7-4.9 6-8.8 5.1-16.2-.6-5.3-3-9-7.8-11.8-3.3-1.9-5.5-2-56.9-2.3l-53.5-.2-4.4 2.2zm10.7 8.5c-1 .2-2.6.2-3.5 0-1-.3-.2-.5 1.7-.5s2.7.2 1.8.5zm98.8.9c1.9 1.5 1.9 1.5-.1.6-1.1-.5-2.7-1.2-3.5-1.5-1.3-.5-1.3-.6.1-.6.8-.1 2.4.6 3.5 1.5zm3.4 7.8c0 3.9-.6 3-1.3-1.9-.4-2.7-.3-3.5.3-2.5.5.8 1 2.8 1 4.4zm-112.3-.2c-.3.8-.6.5-.6-.6-.1-1.1.2-1.7.5-1.3.3.3.4 1.2.1 1.9zm4.7 5.7c-.2.3-1.2-.3-2.2-1.3-1.6-1.7-1.6-1.8.5-.5 1.2.7 2 1.5 1.7 1.8zm105.2-.4c-1.7 1.3-9.4 1.5-53 1.3l-51.1-.3 51.7-.5c28.4-.3 52-.8 52.4-1.3.4-.4 1-.7 1.3-.7.3 0-.3.7-1.3 1.5zM239.3 202.5c-14.5 3.9-25.1 13.8-29.3 27.2-2.4 7.7-2.5 13.8-.6 21.3 3.1 11.6 11.5 21.7 22.4 26.8 5 2.4 6.9 2.7 16.2 2.7 9.5 0 11.1-.3 16.2-2.8 12.1-6 20.1-16.5 22.9-30.3 4.1-20-11.9-41.9-33.1-45.3-7.9-1.3-8.2-1.3-14.7.4zm22.6 12c5.9 3.2 10 7.5 13.3 13.8 3.2 5.9 3.2 19.1.1 25.8-2.7 6-9.2 12.5-15.2 15.2-6.3 2.9-17.8 2.9-24.2 0-12.8-5.8-20.2-19.6-17.7-33.3 1.2-6.7 2.8-9.9 7.5-15.1 6.4-7.1 13.7-10 23.9-9.5 5.5.2 8.2.9 12.3 3.1z"/><path d="M242.7 235c-2.1 1.6-2.7 3-2.7 5.9 0 7.1 5.7 10.8 11.8 7.7 3.3-1.7 4.2-3.4 4.2-7.6 0-6.5-8-10.1-13.3-6zM329.5 202c-31.4 6.7-43.4 45.1-21 67.3 13.7 13.6 35.8 15.5 51.2 4.4 5.1-3.6 11.1-11.3 13.9-17.7 1.5-3.5 1.9-6.8 1.9-15 0-10.1-.2-10.9-3.4-17.4-7.9-15.4-26.8-25-42.6-21.6zm19.9 11.9c6.1 3 11.6 8.6 14.7 14.9 1.9 3.8 2.4 6.3 2.4 12.7-.1 9.6-2.7 15.7-9.8 22.2-6.4 5.9-10.8 7.6-19.7 7.7-12.4 0-22-5.8-27.8-16.9-2.2-4.2-2.6-6.3-2.6-13 .1-13.7 6.7-23.4 19.9-28.8 5.8-2.5 16.6-1.9 22.9 1.2z"/><path d="M331.4 235.4c-5.2 4.4-3 12.6 3.6 14.1 8 1.8 13.4-8.2 7.5-14-3.1-3.2-7.5-3.2-11.1-.1zM202.9 265.3c-.9 2-.6 3.2 2.2 7.8 9.2 15.4 23.6 23.9 40.2 23.9 6.2 0 15.6-2.5 15.8-4.3.5-5.1-1.8-6.8-7.4-5.5-8.1 1.8-17 1.2-23.5-1.7-6.8-3.1-14.3-10.2-18.1-17.2-2-3.7-3.2-4.9-5.3-5.1-2.1-.3-3 .2-3.9 2.1zM373.4 268.1c-3.5 5.6-9.4 11.9-11.1 11.9-.7 0-1.3.4-1.3.9 0 .4-2.5 1.8-5.6 3-6.8 2.6-17.2 2.8-25 .5-4.8-1.4-5.6-1.4-6.9 0-.8.8-1.5 2.5-1.5 3.8 0 2.1.9 2.7 5.8 4.3 19.6 6.2 40-.5 51.1-16.8 4.1-6.1 4.1-11-.1-11.5-2.2-.3-3.2.4-5.4 3.9zM269.5 278.7c-1.4 1.4-1.6 3.8-1.3 17.8.3 16 .3 16.2 3.3 21.1 4.6 7.3 10.1 10.7 18.1 11.2 11 .7 19.3-4.1 23.7-13.7 1.7-3.8 2.1-7.2 2.5-19.6.4-14.3.3-15.1-1.7-16.9-1.7-1.6-2.7-1.8-4.9-1l-2.7.9-.5 15c-.7 18.2-1.8 21.6-8.2 24.5-5.6 2.6-8.8 2.5-12.8-.3-6.1-4.1-7.5-8.4-7.6-23.9 0-14.2-.7-16.8-4.5-16.8-.9 0-2.5.7-3.4 1.7zM251.8 332.7c-5.7 6.1-5.7 16.1.1 22.6 2.6 2.8 3.1 3 5.4 2 3.7-1.7 4.3-4.7 1.7-8.4-2.5-3.4-2.2-7.9.7-11.2 1.6-1.7 1.6-2.1.2-4.5-2-3.7-4.9-3.9-8.1-.5zM329.4 332.5c-1.6 2.4-1.5 2.8.7 7 2.3 4.4 2.4 4.5.6 7.8-2.2 4-1.9 8.6.6 10.1 4 2.6 9.7-5.1 9.7-13.1 0-5.7-.9-8.4-4.3-12.1-2.7-2.9-5.3-2.8-7.3.3zM284.5 336.6c-1.6.2-6.6.9-11 1.5-9.4 1.3-11.5 2.2-11.5 5.2 0 2.7 1 4.1 3.3 5 1.3.5 1.7 1.8 1.7 6.5 0 11 3.3 15.2 11.8 15.2 4.9 0 8.6-2.8 10.2-7.6.9-2.6 1.9-3.6 4-4.1 3.7-.7 7.8-5.1 8.2-8.8.3-2.9.5-3 4.8-2.8 2.5.2 7.3.8 10.8 1.4 4.8.9 6.6.9 7.7-.1 2.1-1.7 1.9-6.7-.2-7.8-4.4-2.3-31.7-4.7-39.8-3.6zm-1.8 10c-.3.3-1.2.4-1.9.1-.8-.3-.5-.6.6-.6 1.1-.1 1.7.2 1.3.5zm8.3.2c0 .5-1.3.7-3 .4-1.6-.2-3-.6-3-.8 0-.2 1.4-.4 3-.4 1.7 0 3 .4 3 .8zM279.5 359c-.3.5-1.2 1-1.8 1-.7 0-.6-.4.3-1 1.9-1.2 2.3-1.2 1.5 0zM184 248.5c-1.1 1.3-1 1.4.4.9.9-.3 1.6-1 1.6-1.5 0-1.3-.6-1.1-2 .6zM181.1 255.6c0 1.1.3 1.4.6.6.3-.7.2-1.6-.1-1.9-.3-.4-.6.2-.5 1.3zM188.3 263c0 2.5.2 3.5.4 2.2.2-1.2.2-3.2 0-4.5-.2-1.2-.4-.2-.4 2.3zM397.8 248.7c.6.2 1 .8.8 1.2-.3.4.5.8 1.6.8 2 .2 2 .1.2-1.2-1.1-.8-2.3-1.4-2.9-1.4-.5 0-.4.3.3.6zM276 398.5c-1.8 2.2.3 6.7 4.3 9.1 4.4 2.6 14.9 2.6 19.5-.1 4.3-2.6 6.4-6.5 4.7-8.8-1.6-2.3-5.3-2.1-9 .3-3.8 2.5-5.6 2.5-10.5 0-4.7-2.4-7.3-2.5-9-.5zM314.2 414c0 1.4.2 1.9.5 1.2.2-.6.2-1.8 0-2.5-.3-.6-.5-.1-.5 1.3z"/></svg>