<?xml version="1.0" standalone="no"?>
<!DOCTYPE svg PUBLIC "-//W3C//DTD SVG 20010904//EN"
 "http://www.w3.org/TR/2001/REC-SVG-20010904/DTD/svg10.dtd">
<svg version="1.0" xmlns="http://www.w3.org/2000/svg"
 width="582.000000pt" height="582.000000pt" viewBox="0 0 582.000000 582.000000"
 preserveAspectRatio="xMidYMid meet">
<metadata>
Created by potrace 1.11, written by Peter Selinger 2001-2013
</metadata>
<g transform="translate(0.000000,582.000000) scale(0.100000,-0.100000)"
fill="#000000" stroke="none">
<path d="M2671 5739 c-295 -26 -652 -118 -934 -240 -410 -177 -808 -490 -1099
-864 -379 -488 -588 -1110 -588 -1755 0 -648 211 -1258 608 -1759 144 -183
390 -414 597 -563 89 -63 307 -190 415 -241 453 -213 961 -313 1423 -279 457
34 856 155 1241 379 97 56 282 182 318 215 7 7 52 46 100 86 118 100 306 296
412 430 505 644 701 1477 541 2296 -60 308 -199 664 -363 930 -129 209 -232
339 -420 530 -325 329 -689 559 -1101 696 -369 122 -780 172 -1150 139z m654
-108 c183 -28 493 -114 625 -173 336 -152 519 -267 771 -484 348 -301 614
-687 784 -1137 106 -283 154 -536 162 -872 7 -296 -18 -507 -92 -790 -185
-700 -678 -1340 -1303 -1694 -41 -22 -75 -41 -75 -41 -1 0 -3 152 -4 338 -2
382 -11 470 -69 640 -57 167 -126 271 -243 368 -105 88 -310 174 -415 174 -66
0 -76 8 -76 60 l0 48 83 55 c45 31 115 89 156 129 72 71 173 210 200 276 11
25 19 32 41 32 16 0 186 -18 379 -40 193 -22 362 -40 376 -40 18 0 29 8 37 25
13 30 36 -5 -259 394 -106 143 -193 262 -193 264 0 3 19 12 43 22 23 9 56 23
72 30 17 7 86 38 155 68 436 188 440 190 446 213 11 42 14 40 -306 176 -91 39
-185 79 -210 91 -25 11 -79 34 -120 52 -41 18 -75 37 -75 43 0 6 61 93 135
193 74 100 142 193 150 205 8 13 48 66 88 118 75 98 88 137 54 155 -17 9 -181
-6 -467 -44 -198 -26 -305 -36 -314 -31 -5 3 -5 26 0 53 19 107 80 697 75 718
-10 38 -41 36 -98 -4 -29 -20 -159 -116 -288 -212 -260 -194 -289 -214 -295
-207 -5 5 -62 135 -207 473 -93 216 -109 245 -138 245 -23 0 -30 -10 -70 -100
-48 -110 -187 -432 -230 -532 -20 -49 -39 -90 -41 -93 -3 -2 -117 79 -254 181
-375 279 -372 277 -399 270 -13 -3 -26 -12 -29 -20 -5 -13 15 -200 69 -639 9
-76 15 -140 12 -142 -4 -4 -59 2 -545 61 -240 29 -253 27 -253 -22 0 -15 80
-131 223 -321 122 -164 225 -303 229 -308 4 -7 -51 -36 -150 -80 -86 -37 -227
-98 -312 -136 -85 -37 -174 -75 -198 -84 -49 -20 -68 -46 -53 -73 11 -21 51
-39 586 -269 72 -31 131 -57 133 -58 3 -3 -4 -14 -267 -365 -105 -140 -190
-265 -191 -276 0 -48 9 -48 352 -10 178 21 354 41 392 46 39 5 73 7 78 4 5 -3
22 -32 38 -63 72 -144 203 -283 353 -377 80 -50 82 -52 85 -94 4 -48 -6 -60
-53 -60 -101 -1 -282 -70 -387 -148 -128 -94 -237 -263 -288 -443 -41 -147
-51 -250 -57 -610 l-6 -347 -26 12 c-103 45 -350 205 -492 317 -345 275 -620
635 -788 1032 -156 369 -218 651 -228 1042 -13 486 77 903 284 1320 132 264
291 484 508 701 468 469 1062 746 1750 818 106 11 515 -4 640 -23z m-379 -378
c-4 -4 -36 73 -35 85 0 4 9 -13 20 -37 11 -24 18 -46 15 -48z m-65 0 c-12 -20
-14 -14 -5 12 4 9 9 14 11 11 3 -2 0 -13 -6 -23z m103 -69 c3 -8 2 -12 -4 -9
-6 3 -10 10 -10 16 0 14 7 11 14 -7z m31 -92 c-5 -5 -25 43 -25 61 1 7 7 -3
16 -22 8 -19 12 -36 9 -39z m-207 -7 c-6 -14 -13 -23 -15 -21 -5 5 15 46 22
46 3 0 -1 -11 -7 -25z m1029 1 c0 -8 -6 -12 -14 -9 -7 3 -10 9 -7 14 8 14 21
11 21 -5z m-1816 -13 c8 -10 9 -14 2 -10 -8 5 -13 -3 -15 -25 -3 -31 -4 -30
-9 10 -5 45 1 52 22 25z m40 -30 c13 -16 12 -17 -3 -4 -10 7 -18 15 -18 17 0
8 8 3 21 -13z m715 -30 c-8 -15 -15 -25 -16 -21 0 12 23 58 27 54 3 -2 -2 -17
-11 -33z m284 -4 c0 -6 -4 -7 -10 -4 -5 3 -10 11 -10 16 0 6 5 7 10 4 6 -3 10
-11 10 -16z m-886 -58 c-2 -3 -12 3 -22 13 -16 17 -16 18 5 5 12 -7 20 -15 17
-18z m-157 -3 c-3 -8 -6 -5 -6 6 -1 11 2 17 5 13 3 -3 4 -12 1 -19z m1653 18
c0 -2 -7 -7 -16 -10 -8 -3 -12 -2 -9 4 6 10 25 14 25 6z m-934 -43 c-8 -15
-15 -25 -16 -21 0 12 23 58 27 54 3 -2 -2 -17 -11 -33z m-526 12 c11 -13 10
-14 -4 -9 -9 3 -16 10 -16 15 0 13 6 11 20 -6z m1420 11 c0 -2 -8 -10 -17 -17
-16 -13 -17 -12 -4 4 13 16 21 21 21 13z m177 -58 c-3 -7 -5 -2 -5 12 0 14 2
19 5 13 2 -7 2 -19 0 -25z m-1096 -25 c-12 -20 -14 -14 -5 12 4 9 9 14 11 11
3 -2 0 -13 -6 -23z m-684 -20 c-3 -10 -5 -4 -5 12 0 17 2 24 5 18 2 -7 2 -21
0 -30z m1483 13 c0 -2 -8 -10 -17 -17 -16 -13 -17 -12 -4 4 13 16 21 21 21 13z
m-40 -30 c0 -2 -8 -10 -17 -17 -16 -13 -17 -12 -4 4 13 16 21 21 21 13z m327
-28 c-3 -7 -5 -2 -5 12 0 14 2 19 5 13 2 -7 2 -19 0 -25z m-1416 5 c13 -17 13
-17 -6 -3 -11 8 -22 16 -24 17 -2 2 0 3 6 3 6 0 17 -8 24 -17z m290 -30 c-12
-20 -14 -14 -5 12 4 9 9 14 11 11 3 -2 0 -13 -6 -23z m759 23 c0 -2 -8 -10
-17 -17 -16 -13 -17 -12 -4 4 13 16 21 21 21 13z m-1393 -38 c-3 -7 -5 -2 -5
12 0 14 2 19 5 13 2 -7 2 -19 0 -25z m408 2 c3 -6 -1 -7 -9 -4 -18 7 -21 14
-7 14 6 0 13 -4 16 -10z m910 -25 c-16 -13 -34 -24 -39 -25 -6 0 5 11 24 25
44 32 54 32 15 0z m-815 -45 c18 -15 19 -18 5 -11 -11 5 -36 24 -55 41 -30 27
-31 29 -5 11 17 -11 41 -30 55 -41z m650 15 c0 -5 -5 -3 -10 5 -5 8 -10 20
-10 25 0 6 5 3 10 -5 5 -8 10 -19 10 -25z m597 -7 c-3 -8 -6 -5 -6 6 -1 11 2
17 5 13 3 -3 4 -12 1 -19z m-1740 -25 c-3 -10 -5 -4 -5 12 0 17 2 24 5 18 2
-7 2 -21 0 -30z m573 -3 c-8 -6 -24 -9 -35 -9 l-20 1 20 5 c11 3 24 9 29 14 5
5 12 6 15 3 3 -3 -1 -9 -9 -14z m621 -8 c-7 -2 -18 1 -23 6 -8 8 -4 9 13 5 13
-4 18 -8 10 -11z m536 -54 c-2 -13 -4 -5 -4 17 -1 22 1 32 4 23 2 -10 2 -28 0
-40z m-884 35 c-7 -2 -21 -2 -30 0 -10 3 -4 5 12 5 17 0 24 -2 18 -5z m80 0
c-7 -2 -21 -2 -30 0 -10 3 -4 5 12 5 17 0 24 -2 18 -5z m-186 -9 c-3 -3 -12
-4 -19 -1 -8 3 -5 6 6 6 11 1 17 -2 13 -5z m280 0 c-3 -3 -12 -4 -19 -1 -8 3
-5 6 6 6 11 1 17 -2 13 -5z m-1010 -66 c-2 -13 -4 -5 -4 17 -1 22 1 32 4 23 2
-10 2 -28 0 -40z m493 2 c-8 -5 -22 -9 -30 -9 -10 0 -8 3 5 9 27 12 43 12 25
0z m780 -12 c0 -6 -6 -5 -15 2 -8 7 -15 14 -15 16 0 2 7 1 15 -2 8 -4 15 -11
15 -16z m437 -35 c-3 -10 -5 -4 -5 12 0 17 2 24 5 18 2 -7 2 -21 0 -30z
m-1287 22 c0 -2 -10 -9 -22 -15 -22 -11 -22 -10 -4 4 21 17 26 19 26 11z m895
-5 c3 -6 -1 -7 -9 -4 -18 7 -21 14 -7 14 6 0 13 -4 16 -10z m-185 -35 c274
-89 496 -294 588 -545 62 -168 65 -188 66 -545 3 -563 -9 -663 -104 -863 -176
-370 -626 -579 -1030 -478 -304 76 -558 300 -650 576 -52 154 -59 229 -60 620
0 377 7 483 40 608 89 328 346 567 690 641 141 31 342 24 460 -14z m-1123 -27
c-2 -13 -4 -5 -4 17 -1 22 1 32 4 23 2 -10 2 -28 0 -40z m1373 26 c0 -2 -9 0
-20 6 -11 6 -20 13 -20 16 0 2 9 0 20 -6 11 -6 20 -13 20 -16z m317 -61 c-3
-10 -5 -4 -5 12 0 17 2 24 5 18 2 -7 2 -21 0 -30z m-1407 24 c0 -2 -15 -13
-32 -26 l-33 -22 28 25 c26 24 37 31 37 23z m1181 -24 c13 -16 12 -17 -3 -4
-17 13 -22 21 -14 21 2 0 10 -8 17 -17z m44 -31 c-3 -3 -11 0 -18 7 -9 10 -8
11 6 5 10 -3 15 -9 12 -12z m935 14 c0 -3 -4 -8 -10 -11 -5 -3 -10 -1 -10 4 0
6 5 11 10 11 6 0 10 -2 10 -4z m-3166 -22 c5 -14 4 -15 -9 -4 -17 14 -19 20
-6 20 5 0 12 -7 15 -16z m885 -38 c-29 -30 -55 -53 -57 -51 -4 4 95 105 104
105 3 0 -18 -25 -47 -54z m-801 37 c-10 -2 -26 -2 -35 0 -10 3 -2 5 17 5 19 0
27 -2 18 -5z m649 -15 c-3 -8 -6 -5 -6 6 -1 11 2 17 5 13 3 -3 4 -12 1 -19z
m2296 15 c-7 -2 -19 -2 -25 0 -7 3 -2 5 12 5 14 0 19 -2 13 -5z m-2840 -10
c-7 -2 -21 -2 -30 0 -10 3 -4 5 12 5 17 0 24 -2 18 -5z m2078 -10 c13 -16 12
-17 -3 -4 -17 13 -22 21 -14 21 2 0 10 -8 17 -17z m657 10 c-10 -2 -26 -2 -35
0 -10 3 -2 5 17 5 19 0 27 -2 18 -5z m190 -37 c-18 -24 -34 -43 -36 -41 -5 5
52 84 61 85 4 0 -7 -20 -25 -44z m-2835 27 c-7 -2 -21 -2 -30 0 -10 3 -4 5 12
5 17 0 24 -2 18 -5z m2550 0 c-7 -2 -19 -2 -25 0 -7 3 -2 5 12 5 14 0 19 -2
13 -5z m-2465 -10 c-10 -2 -26 -2 -35 0 -10 3 -2 5 17 5 19 0 27 -2 18 -5z
m2385 0 c-7 -2 -21 -2 -30 0 -10 3 -4 5 12 5 17 0 24 -2 18 -5z m-2286 -9 c-3
-3 -12 -4 -19 -1 -8 3 -5 6 6 6 11 1 17 -2 13 -5z m2181 -1 c-10 -2 -26 -2
-35 0 -10 3 -2 5 17 5 19 0 27 -2 18 -5z m-2095 -10 c-7 -2 -19 -2 -25 0 -7 3
-2 5 12 5 14 0 19 -2 13 -5z m2010 0 c-7 -2 -21 -2 -30 0 -10 3 -4 5 12 5 17
0 24 -2 18 -5z m-2508 -23 c10 -11 16 -20 13 -20 -3 0 -13 9 -23 20 -10 11
-16 20 -13 20 3 0 13 -9 23 -20z m578 13 c-7 -2 -19 -2 -25 0 -7 3 -2 5 12 5
14 0 19 -2 13 -5z m168 -66 l-23 -22 17 28 c10 15 20 25 23 22 3 -3 -5 -16
-17 -28z m2229 -41 c0 -2 -8 -10 -17 -17 -16 -13 -17 -12 -4 4 13 16 21 21 21
13z m-2299 -53 c-12 -20 -14 -14 -5 12 4 9 9 14 11 11 3 -2 0 -13 -6 -23z
m-521 -67 c0 -5 -1 -7 -3 -5 -2 2 -15 22 -31 44 l-27 40 30 -35 c17 -19 31
-39 31 -44z m2760 45 c-5 -11 -15 -23 -21 -27 -6 -3 -3 5 6 20 20 30 30 35 15
7z m-2269 -24 c-10 -9 -11 -8 -5 6 3 10 9 15 12 12 3 -3 0 -11 -7 -18z m-20
-44 c-12 -20 -14 -14 -5 12 4 9 9 14 11 11 3 -2 0 -13 -6 -23z m-422 -37 c-3
-3 -11 5 -18 17 -13 21 -12 21 5 5 10 -10 16 -20 13 -22z m2605 -41 c-9 -14
-18 -25 -21 -25 -5 0 5 18 20 38 17 22 18 13 1 -13z m-336 -10 c-3 -3 -9 2
-12 12 -6 14 -5 15 5 6 7 -7 10 -15 7 -18z m-2164 -92 c4 -7 5 -13 3 -13 -6 0
-67 87 -67 96 0 6 45 -52 64 -83z m2440 22 c-9 -14 -18 -25 -21 -25 -5 0 5 18
20 38 17 22 18 13 1 -13z m-2404 -70 c14 -19 14 -19 -2 -6 -10 7 -18 18 -18
24 0 6 1 8 3 6 1 -2 9 -13 17 -24z m2177 -37 c-3 -8 -6 -5 -6 6 -1 11 2 17 5
13 3 -3 4 -12 1 -19z m-2160 -10 c-3 -8 -6 -5 -6 6 -1 11 2 17 5 13 3 -3 4
-12 1 -19z m2170 -55 c-3 -10 -5 -4 -5 12 0 17 2 24 5 18 2 -7 2 -21 0 -30z
m209 10 c-6 -6 -36 9 -36 18 0 5 9 4 20 -3 10 -7 18 -14 16 -15z m-2436 -13
c-8 -5 -19 -10 -25 -10 -5 0 -3 5 5 10 8 5 20 10 25 10 6 0 3 -5 -5 -10z m207
-67 c-3 -10 -5 -2 -5 17 0 19 2 27 5 18 2 -10 2 -26 0 -35z m2030 -10 c-3 -10
-5 -2 -5 17 0 19 2 27 5 18 2 -10 2 -26 0 -35z m448 -13 c3 -5 -4 -6 -15 -3
-11 3 -22 9 -25 13 -3 5 4 6 15 3 11 -3 22 -9 25 -13z m-2940 -20 c-3 -5 -12
-10 -18 -10 -7 0 -6 4 3 10 19 12 23 12 15 0z m2502 -97 c-2 -16 -4 -3 -4 27
0 30 2 43 4 28 2 -16 2 -40 0 -55z m-2662 27 c-3 -5 -12 -10 -18 -10 -7 0 -6
4 3 10 19 12 23 12 15 0z m3350 -20 c3 -6 -1 -7 -9 -4 -18 7 -21 14 -7 14 6 0
13 -4 16 -10z m-3495 -40 c-8 -5 -19 -10 -25 -10 -5 0 -3 5 5 10 8 5 20 10 25
10 6 0 3 -5 -5 -10z m3610 -10 c0 -5 -5 -10 -11 -10 -5 0 -7 5 -4 10 3 6 8 10
11 10 2 0 4 -4 4 -10z m-3650 -10 c0 -5 -4 -10 -10 -10 -5 0 -10 5 -10 10 0 6
5 10 10 10 6 0 10 -4 10 -10z m2915 -30 c3 -6 -1 -7 -9 -4 -18 7 -21 14 -7 14
6 0 13 -4 16 -10z m-2815 -20 c8 -5 11 -10 5 -10 -5 0 -17 5 -25 10 -8 5 -10
10 -5 10 6 0 17 -5 25 -10z m610 7 c0 -2 -9 -12 -20 -22 -24 -21 -27 -14 -4 9
15 15 24 20 24 13z m-555 -35 c-3 -3 -11 0 -18 7 -9 10 -8 11 6 5 10 -3 15 -9
12 -12z m486 -38 c-11 -15 -21 -24 -21 -20 0 10 34 55 39 51 2 -2 -6 -16 -18
-31z m-396 -2 c-3 -3 -11 0 -18 7 -9 10 -8 11 6 5 10 -3 15 -9 12 -12z m45
-12 c8 -5 11 -10 5 -10 -5 0 -17 5 -25 10 -8 5 -10 10 -5 10 6 0 17 -5 25 -10z
m515 -56 c7 -64 2 -211 -8 -221 -3 -2 -19 3 -36 11 -83 43 -96 170 -25 241 51
51 61 46 69 -31z m2083 46 c75 -46 84 -167 17 -236 -11 -12 -50 -34 -59 -34
-3 0 -6 65 -6 145 0 80 3 145 8 145 4 0 22 -9 40 -20z m-2548 -10 c8 -5 11
-10 5 -10 -5 0 -17 5 -25 10 -8 5 -10 10 -5 10 6 0 17 -5 25 -10z m2697 -22
c-3 -8 -6 -5 -6 6 -1 11 2 17 5 13 3 -3 4 -12 1 -19z m-2587 -28 c8 -5 11 -10
5 -10 -5 0 -17 5 -25 10 -8 5 -10 10 -5 10 6 0 17 -5 25 -10z m2690 -20 c-8
-5 -19 -10 -25 -10 -5 0 -3 5 5 10 8 5 20 10 25 10 6 0 3 -5 -5 -10z m-2620
-10 c8 -5 11 -10 5 -10 -5 0 -17 5 -25 10 -8 5 -10 10 -5 10 6 0 17 -5 25 -10z
m76 -37 c-11 -11 -17 4 -9 23 7 18 8 18 11 1 2 -10 1 -21 -2 -24z m44 -148
c14 -19 14 -19 -2 -6 -10 7 -18 18 -18 24 0 6 1 8 3 6 1 -2 9 -13 17 -24z
m2363 -5 c-14 -16 -28 -30 -30 -30 -2 0 6 14 19 30 12 17 25 30 30 30 4 0 -4
-13 -19 -30z m48 -7 c13 -16 12 -17 -3 -4 -17 13 -22 21 -14 21 2 0 10 -8 17
-17z m-2366 -33 c3 -6 -1 -7 -9 -4 -18 7 -21 14 -7 14 6 0 13 -4 16 -10z
m2260 -20 c-10 -11 -22 -20 -28 -20 -5 0 1 9 14 20 31 25 37 25 14 0z m-2375
7 c0 -2 -12 -14 -27 -28 l-28 -24 24 28 c23 25 31 32 31 24z m2535 -23 c9 -15
12 -23 6 -20 -11 7 -35 46 -28 46 3 0 12 -12 22 -26z m-2380 6 c3 -6 -1 -7 -9
-4 -18 7 -21 14 -7 14 6 0 13 -4 16 -10z m82 -87 c-3 -10 -5 -2 -5 17 0 19 2
27 5 18 2 -10 2 -26 0 -35z m-319 -8 c-13 -19 -27 -35 -32 -35 -8 0 0 14 33
53 23 28 23 19 -1 -18z m2349 -52 c-3 -10 -5 -2 -5 17 0 19 2 27 5 18 2 -10 2
-26 0 -35z m364 10 c13 -16 12 -17 -3 -4 -17 13 -22 21 -14 21 2 0 10 -8 17
-17z m-2751 -6 c0 -2 -10 -12 -22 -23 l-23 -19 19 23 c18 21 26 27 26 19z
m367 -29 c-3 -8 -6 -5 -6 6 -1 11 2 17 5 13 3 -3 4 -12 1 -19z m2010 -40 c-3
-7 -5 -2 -5 12 0 14 2 19 5 13 2 -7 2 -19 0 -25z m-12 -68 c-9 -41 -17 -33 -9
9 4 17 9 30 11 27 3 -2 2 -19 -2 -36z m519 -36 c3 -8 2 -12 -4 -9 -6 3 -10 10
-10 16 0 14 7 11 14 -7z m-537 -26 c-3 -8 -6 -5 -6 6 -1 11 2 17 5 13 3 -3 4
-12 1 -19z m-1949 -15 c-10 -2 -26 -2 -35 0 -10 3 -2 5 17 5 19 0 27 -2 18 -5z
m2039 1 c-3 -3 -12 -4 -19 -1 -8 3 -5 6 6 6 11 1 17 -2 13 -5z m-2124 -11 c-7
-2 -19 -2 -25 0 -7 3 -2 5 12 5 14 0 19 -2 13 -5z m2200 0 c-7 -2 -21 -2 -30
0 -10 3 -4 5 12 5 17 0 24 -2 18 -5z m94 -9 c-3 -3 -12 -4 -19 -1 -8 3 -5 6 6
6 11 1 17 -2 13 -5z m-2803 -39 c-4 -8 -11 -15 -16 -15 -6 0 -5 6 2 15 7 8 14
15 16 15 2 0 1 -7 -2 -15z m41 -5 c-3 -5 -14 -10 -23 -9 -14 0 -13 2 3 9 27
11 27 11 20 0z m3115 0 c0 -5 -2 -10 -4 -10 -3 0 -8 5 -11 10 -3 6 -1 10 4 10
6 0 11 -4 11 -10z m-1210 -592 c0 -58 -12 -138 -20 -133 -5 3 -6 -3 -3 -14 12
-46 -78 -176 -158 -227 -100 -63 -240 -69 -345 -16 -135 69 -214 197 -214 351
0 56 2 62 18 56 179 -77 473 -79 658 -7 65 26 64 27 64 -10z m-927 -180 c-45
-63 -153 -208 -403 -541 -208 -278 -203 -276 -176 -88 52 350 233 577 528 661
92 27 94 26 51 -32z m1199 26 c176 -55 300 -145 382 -277 80 -129 134 -302
143 -461 l6 -101 -322 427 c-176 235 -321 430 -321 433 0 10 31 4 112 -21z
m-1115 -875 c-4 -441 -9 -804 -11 -806 -5 -5 -154 23 -202 38 -28 9 -80 61
-181 182 l-32 38 100 150 c74 112 99 157 97 176 -2 22 -20 36 -98 81 -52 29
-134 77 -181 104 l-87 51 295 394 c163 216 298 393 301 393 3 0 2 -361 -1
-801z m1006 734 c84 -107 515 -680 526 -701 13 -25 18 -21 -154 -117 -169 -94
-208 -122 -202 -144 2 -9 47 -83 100 -164 54 -81 97 -153 97 -160 0 -7 -40
-54 -88 -105 l-87 -92 -99 -25 c-54 -14 -109 -25 -122 -25 l-24 0 0 613 c0
336 -3 696 -7 800 -3 103 -3 187 0 187 3 0 30 -30 60 -67z m-887 -65 c10 -12
14 -18 7 -15 -7 5 -13 -1 -15 -15 -3 -16 -5 -12 -9 15 -3 20 -4 37 -4 37 1 0
10 -10 21 -22z m688 -29 c-16 -17 -38 -35 -49 -41 -11 -6 0 8 25 30 53 49 65
54 24 11z m-639 -19 c10 -11 16 -20 13 -20 -3 0 -15 9 -28 20 -13 11 -19 20
-13 20 5 0 18 -9 28 -20z m95 -66 c0 -2 -9 0 -20 6 -11 6 -20 13 -20 16 0 2 9
0 20 -6 11 -6 20 -13 20 -16z m105 -34 c3 -6 -1 -7 -9 -4 -18 7 -21 14 -7 14
6 0 13 -4 16 -10z m252 4 c-3 -3 -12 -4 -19 -1 -8 3 -5 6 6 6 11 1 17 -2 13
-5z m-210 -10 c-3 -3 -12 -4 -19 -1 -8 3 -5 6 6 6 11 1 17 -2 13 -5z m140 0
c-3 -3 -12 -4 -19 -1 -8 3 -5 6 6 6 11 1 17 -2 13 -5z m310 -1017 c-1 -111 -2
-20 -2 203 0 223 1 314 2 202 2 -111 2 -293 0 -405z m783 192 l0 -270 -77 -36
c-91 -41 -176 -74 -180 -70 -1 2 5 12 15 23 59 66 82 96 82 109 0 7 -41 76
-92 152 -90 136 -109 173 -91 173 5 0 83 43 174 95 90 52 165 95 167 95 1 0 2
-122 2 -271z m-2155 171 c87 -49 162 -93 168 -99 6 -6 -20 -55 -77 -141 -48
-72 -92 -141 -98 -155 -13 -29 -5 -43 68 -124 41 -46 45 -53 24 -46 -54 16
-235 86 -241 93 -9 10 -18 562 -9 562 4 0 78 -40 165 -90z m658 -687 c-7 -2
-19 -2 -25 0 -7 3 -2 5 12 5 14 0 19 -2 13 -5z m120 -10 c-13 -2 -33 -2 -45 0
-13 2 -3 4 22 4 25 0 35 -2 23 -4z m425 0 c-10 -2 -28 -2 -40 0 -13 2 -5 4 17
4 22 1 32 -1 23 -4z m-195 -10 c-23 -2 -64 -2 -90 0 -26 2 -7 3 42 3 50 0 71
-1 48 -3z"/>
<path d="M2745 4430 c-22 -5 -65 -14 -95 -19 -58 -11 -94 -40 -83 -67 10 -26
44 -32 103 -17 30 7 132 16 225 19 143 5 185 3 263 -13 80 -17 95 -18 112 -6
23 16 26 45 7 61 -43 36 -425 66 -532 42z"/>
<path d="M2351 4208 c-67 -34 -85 -66 -89 -151 -4 -87 16 -133 68 -159 32 -17
82 -18 594 -18 l559 0 43 45 c47 49 60 88 51 162 -6 53 -30 90 -78 118 -33 19
-55 20 -569 23 l-535 2 -44 -22z m107 -85 c-10 -2 -26 -2 -35 0 -10 3 -2 5 17
5 19 0 27 -2 18 -5z m988 -9 c19 -15 19 -15 -1 -6 -11 5 -27 12 -35 15 -13 5
-13 6 1 6 8 1 24 -6 35 -15z m34 -78 c0 -39 -6 -30 -13 19 -4 27 -3 35 3 25 5
-8 10 -28 10 -44z m-1123 2 c-3 -8 -6 -5 -6 6 -1 11 2 17 5 13 3 -3 4 -12 1
-19z m47 -57 c-2 -3 -12 3 -22 13 -16 17 -16 18 5 5 12 -7 20 -15 17 -18z
m1052 4 c-17 -13 -94 -15 -530 -13 l-511 3 517 5 c284 3 520 8 524 13 4 4 10
7 13 7 3 0 -3 -7 -13 -15z"/>
<path d="M2393 3795 c-145 -39 -251 -138 -293 -272 -24 -77 -25 -138 -6 -213
31 -116 115 -217 224 -268 50 -24 69 -27 162 -27 95 0 111 3 162 28 121 60
201 165 229 303 41 200 -119 419 -331 453 -79 13 -82 13 -147 -4z m226 -120
c59 -32 100 -75 133 -138 32 -59 32 -191 1 -258 -27 -60 -92 -125 -152 -152
-63 -29 -178 -29 -242 0 -128 58 -202 196 -177 333 12 67 28 99 75 151 64 71
137 100 239 95 55 -2 82 -9 123 -31z"/>
<path d="M2427 3470 c-21 -16 -27 -30 -27 -59 0 -71 57 -108 118 -77 33 17 42
34 42 76 0 65 -80 101 -133 60z"/>
<path d="M3295 3800 c-314 -67 -434 -451 -210 -673 137 -136 358 -155 512 -44
51 36 111 113 139 177 15 35 19 68 19 150 0 101 -2 109 -34 174 -79 154 -268
250 -426 216z m199 -119 c61 -30 116 -86 147 -149 19 -38 24 -63 24 -127 -1
-96 -27 -157 -98 -222 -64 -59 -108 -76 -197 -77 -124 0 -220 58 -278 169 -22
42 -26 63 -26 130 1 137 67 234 199 288 58 25 166 19 229 -12z"/>
<path d="M3314 3466 c-52 -44 -30 -126 36 -141 80 -18 134 82 75 140 -31 32
-75 32 -111 1z"/>
<path d="M2029 3167 c-9 -20 -6 -32 22 -78 92 -154 236 -239 402 -239 62 0
156 25 158 43 5 51 -18 68 -74 55 -81 -18 -170 -12 -235 17 -68 31 -143 102
-181 172 -20 37 -32 49 -53 51 -21 3 -30 -2 -39 -21z"/>
<path d="M3734 3139 c-35 -56 -94 -119 -111 -119 -7 0 -13 -4 -13 -9 0 -4 -25
-18 -56 -30 -68 -26 -172 -28 -250 -5 -48 14 -56 14 -69 0 -8 -8 -15 -25 -15
-38 0 -21 9 -27 58 -43 196 -62 400 5 511 168 41 61 41 110 -1 115 -22 3 -32
-4 -54 -39z"/>
<path d="M2695 3033 c-14 -14 -16 -38 -13 -178 3 -160 3 -162 33 -211 46 -73
101 -107 181 -112 110 -7 193 41 237 137 17 38 21 72 25 196 4 143 3 151 -17
169 -17 16 -27 18 -49 10 l-27 -9 -5 -150 c-7 -182 -18 -216 -82 -245 -56 -26
-88 -25 -128 3 -61 41 -75 84 -76 239 0 142 -7 168 -45 168 -9 0 -25 -7 -34
-17z"/>
<path d="M2518 2493 c-57 -61 -57 -161 1 -226 26 -28 31 -30 54 -20 37 17 43
47 17 84 -25 34 -22 79 7 112 16 17 16 21 2 45 -20 37 -49 39 -81 5z"/>
<path d="M3294 2495 c-16 -24 -15 -28 7 -70 23 -44 24 -45 6 -78 -22 -40 -19
-86 6 -101 40 -26 97 51 97 131 0 57 -9 84 -43 121 -27 29 -53 28 -73 -3z"/>
<path d="M2845 2454 c-16 -2 -66 -9 -110 -15 -94 -13 -115 -22 -115 -52 0 -27
10 -41 33 -50 13 -5 17 -18 17 -65 0 -110 33 -152 118 -152 49 0 86 28 102 76
9 26 19 36 40 41 37 7 78 51 82 88 3 29 5 30 48 28 25 -2 73 -8 108 -14 48 -9
66 -9 77 1 21 17 19 67 -2 78 -44 23 -317 47 -398 36z m-18 -100 c-3 -3 -12
-4 -19 -1 -8 3 -5 6 6 6 11 1 17 -2 13 -5z m83 -2 c0 -5 -13 -7 -30 -4 -16 2
-30 6 -30 8 0 2 14 4 30 4 17 0 30 -4 30 -8z m-115 -122 c-3 -5 -12 -10 -18
-10 -7 0 -6 4 3 10 19 12 23 12 15 0z"/>
<path d="M1840 3335 c-11 -13 -10 -14 4 -9 9 3 16 10 16 15 0 13 -6 11 -20 -6z"/>
<path d="M1811 3264 c0 -11 3 -14 6 -6 3 7 2 16 -1 19 -3 4 -6 -2 -5 -13z"/>
<path d="M1883 3190 c0 -25 2 -35 4 -22 2 12 2 32 0 45 -2 12 -4 2 -4 -23z"/>
<path d="M3978 3333 c6 -2 10 -8 8 -12 -3 -4 5 -8 16 -8 20 -2 20 -1 2 12 -11
8 -23 14 -29 14 -5 0 -4 -3 3 -6z"/>
<path d="M2760 1835 c-18 -22 3 -67 43 -91 44 -26 149 -26 195 1 43 26 64 65
47 88 -16 23 -53 21 -90 -3 -38 -25 -56 -25 -105 0 -47 24 -73 25 -90 5z"/>
<path d="M3142 1680 c0 -14 2 -19 5 -12 2 6 2 18 0 25 -3 6 -5 1 -5 -13z"/>
</g>
</svg>
